<?xml version="1.0" encoding="utf-8"?>
<!-- Generator: Adobe Illustrator 21.0.2, SVG Export Plug-In . SVG Version: 6.00 Build 0)  -->
<svg version="1.1" id="Capa_1" xmlns="http://www.w3.org/2000/svg" xmlns:xlink="http://www.w3.org/1999/xlink" x="0px" y="0px"
	 viewBox="0 0 39.6 56.5" style="enable-background:new 0 0 39.6 56.5;" xml:space="preserve">
<style type="text/css">
	.st0{opacity:0.2;enable-background:new    ;}
	.st1{fill:#39B54A;stroke:#FFFFFF;stroke-width:2;stroke-miterlimit:10;}
</style>
<path class="st0" d="M4.4,34.2l19.8,19.3c1.5,1.5,3.6,2.4,5.8,2.4c2.1,0,4-0.7,5.5-2.1c3.2-2.9,3.4-7.6,0.3-10.6L22.2,29l13.7-14.1
	c1.5-1.4,2.2-3.3,2.2-5.3s-0.9-3.9-2.5-5.2c-1.5-1.4-3.6-2.1-5.8-2c-2.1,0-4.1,0.8-5.6,2.3L4.4,23.9C1.5,26.8,1.5,31.3,4.4,34.2z"/>
<g>
	<g>
		<g id="XMLID_29_">
			<g id="XMLID_30_">
				<path id="XMLID_31_" class="st1" d="M26.5,51L6.8,31.6c-2.5-2.4-2.5-6.3,0-8.8L26.6,3.6c2.6-2.5,6.9-2.7,9.7-0.2
					c2.7,2.4,2.7,6.4,0.2,9L22.1,27.2l14.3,15c2.7,2.5,2.6,6.5-0.2,9c-1.3,1.2-3,1.8-4.7,1.8C29.7,53,27.9,52.3,26.5,51z"/>
			</g>
		</g>
	</g>
</g>
</svg>
