<?xml version="1.0" encoding="utf-8"?>
<!-- Generator: Adobe Illustrator 21.0.2, SVG Export Plug-In . SVG Version: 6.00 Build 0)  -->
<svg version="1.1" id="Capa_1" xmlns="http://www.w3.org/2000/svg" xmlns:xlink="http://www.w3.org/1999/xlink" x="0px" y="0px"
	 viewBox="0 0 39.6 56.5" style="enable-background:new 0 0 39.6 56.5;" xml:space="preserve">
<style type="text/css">
	.st0{opacity:0.2;enable-background:new    ;}
	.st1{fill:#39B54A;stroke:#FFFFFF;stroke-width:2;stroke-miterlimit:10;}
</style>
<path class="st0" d="M36.2,23.9L16.4,4.7c-1.5-1.5-3.5-2.3-5.6-2.3C8.6,2.3,6.5,3,5,4.4C3.4,5.7,2.5,7.6,2.5,9.6s0.7,3.9,2.2,5.3
	L18.4,29L4.8,43.2c-3.1,3-2.9,7.7,0.3,10.6c1.5,1.4,3.4,2.1,5.5,2.1c2.2,0,4.3-0.9,5.8-2.4l19.8-19.3C39.1,31.3,39.1,26.8,36.2,23.9
	z"/>
<g>
	<g>
		<g id="XMLID_29_">
			<g id="XMLID_30_">
				<path id="XMLID_31_" class="st1" d="M9.1,53c-1.7,0-3.4-0.6-4.7-1.8c-2.8-2.5-2.9-6.5-0.2-9l14.3-15L4.1,12.4
					c-2.5-2.6-2.5-6.6,0.2-9c2.8-2.5,7.1-2.3,9.7,0.2l19.8,19.2c2.5,2.5,2.5,6.4,0,8.8L14.1,51C12.7,52.3,10.9,53,9.1,53z"/>
			</g>
		</g>
	</g>
</g>
</svg>
